<svg
    width="320"
    height="102"
    viewBox="0 0 320 102"
    fill="none"
    xmlns="http://www.w3.org/2000/svg"
>
    <path
        d="M45.0027 9.43917C57.2474 9.43917 66.6879 12.4302 73.3244 18.4124C79.9608 24.301 83.279 32.6199 83.279 43.3691C83.279 54.3052 80.0075 62.811 73.4646 68.8866C66.9216 74.9622 57.1539 78 44.1615 78H21.4481V9.43917H45.0027ZM44.5821 20.0948H33.0852V67.0639H45.844C54.2563 67.0639 60.6591 65.101 65.0522 61.1753C69.4453 57.156 71.6419 51.3141 71.6419 43.6495C71.6419 27.9464 62.622 20.0948 44.5821 20.0948ZM138.04 53.0433L155.986 78H141.264L124.86 54.866H109.718V78H98.0809V9.43917H123.598C133.974 9.43917 141.405 11.2151 145.891 14.767C150.471 18.2254 152.761 23.8804 152.761 31.732C152.761 43.0419 147.854 50.1457 138.04 53.0433ZM124.019 44.4907C130.469 44.4907 134.908 43.5093 137.339 41.5464C139.769 39.5835 140.984 36.2653 140.984 31.5918C140.984 27.1052 139.769 24.0674 137.339 22.4783C134.908 20.7959 130.562 19.9546 124.299 19.9546H109.718V44.4907H124.019ZM273.971 9.43917C284.253 9.43917 291.778 11.4488 296.545 15.468C301.405 19.3938 303.835 25.5162 303.835 33.835C303.835 42.0605 301.405 48.1361 296.545 52.0619C291.684 55.8942 284.207 57.8103 274.112 57.8103H262.054V78H250.417V9.43917H273.971ZM275.374 47.4351C281.543 47.4351 285.842 46.2667 288.273 43.9299C290.796 41.5931 292.058 37.901 292.058 32.8536C292.058 28.1801 290.609 24.8619 287.712 22.899C284.814 20.9361 280.141 19.9546 273.691 19.9546H262.054V47.4351H275.374Z"
        fill="#0079BD"
    />
</svg>
