<?xml version="1.0" standalone="no"?>
<!DOCTYPE svg PUBLIC "-//W3C//DTD SVG 20010904//EN" "http://www.w3.org/TR/2001/REC-SVG-20010904/DTD/svg10.dtd">
<svg
    version="1.0"
    xmlns="http://www.w3.org/2000/svg"
    width="427.000000pt"
    height="392.000000pt"
    viewBox="0 0 427.000000 392.000000"
    preserveAspectRatio="xMidYMid meet"
>
    <g
        transform="translate(0.000000,392.000000) scale(0.100000,-0.100000)"
        fill="currentColor"
        stroke="none"
    >
        <path
            d="M95 3881 c-87 -53 -108 -150 -48 -221 74 -89 202 -79 254 20 53 99
-22 220 -136 220 -22 0 -53 -8 -70 -19z m123 -15 c85 -44 101 -145 33 -210
-57 -55 -149 -42 -191 27 -65 106 50 239 158 183z"
        />
        <path
            d="M110 3745 c0 -57 4 -95 10 -95 6 0 10 21 10 46 0 38 3 45 18 42 9 -2
26 -22 36 -46 21 -47 53 -61 36 -16 -6 14 -14 33 -19 43 -7 13 -5 20 10 29 21
14 26 61 7 80 -7 7 -34 12 -60 12 l-48 0 0 -95z"
        />
        <path
            d="M420 1920 l0 -1910 1925 0 1925 0 0 1910 0 1910 -1925 0 -1925 0 0
-1910z m2923 -135 c15 -6 17 -24 17 -176 l0 -169 -192 2 c-189 3 -193 3 -196
24 -2 12 -12 30 -23 39 -17 16 -27 17 -103 6 -326 -45 -578 -194 -681 -403
-57 -118 -65 -174 -65 -505 l0 -293 -195 0 -195 0 0 510 0 509 88 52 c142 85
378 202 518 257 205 81 393 127 624 156 52 6 382 -1 403 -9z m-2038 -461 c236
-87 365 -266 365 -507 0 -257 -166 -453 -436 -518 -74 -18 -110 -20 -209 -16
-191 7 -334 66 -443 181 -143 151 -179 399 -86 592 37 77 149 189 231 232 109
57 187 72 353 69 131 -3 153 -7 225 -33z m1525 -7 c31 -14 74 -42 97 -62 23
-19 43 -35 45 -35 1 0 1 22 0 50 l-4 50 196 0 196 0 0 -505 0 -505 -192 2
-193 3 -3 52 -3 52 -47 -33 c-93 -67 -129 -79 -234 -84 -120 -5 -207 18 -289
77 -255 183 -290 617 -68 839 95 95 199 133 349 129 78 -3 105 -8 150 -30z
m1200 12 c41 -11 96 -29 122 -41 l48 -20 0 -134 0 -133 -84 39 c-96 46 -206
74 -255 66 -51 -8 -81 -32 -81 -66 0 -42 36 -64 137 -84 118 -24 181 -49 232
-92 67 -57 85 -103 85 -209 0 -106 -12 -155 -57 -221 -43 -65 -104 -109 -185
-135 -133 -42 -415 -23 -517 34 l-40 23 -3 132 c-1 74 1 132 7 132 4 0 34 -12
66 -26 189 -87 395 -64 355 40 -13 34 -33 43 -149 66 -119 24 -175 47 -225 91
-64 56 -81 100 -81 209 1 83 4 102 27 145 48 93 134 155 259 189 83 23 249 20
339 -5z"
        />
        <path
            d="M972 1037 c-91 -34 -141 -111 -142 -215 0 -146 81 -226 231 -227 67
0 81 3 124 30 140 86 140 303 1 390 -39 24 -61 30 -115 32 -36 1 -81 -3 -99
-10z"
        />
        <path
            d="M2700 1020 c-110 -51 -158 -152 -126 -263 37 -128 186 -201 301 -148
81 38 135 124 135 215 0 61 -45 144 -98 180 -57 40 -146 47 -212 16z"
        />
    </g>
</svg>
