<svg width="214" height="70" viewBox="0 0 214 70" fill="none" xmlns="http://www.w3.org/2000/svg">
<path d="M17.8503 0.222171C27.1296 0.222171 34.2839 2.48926 39.3131 7.02344C44.3424 11.4868 46.857 17.7921 46.857 25.9395C46.857 34.2285 44.3778 40.6755 39.4194 45.2806C34.461 49.8856 27.0588 52.1881 17.2128 52.1881H0V0.222171H17.8503ZM17.5315 8.29868H8.81889V43.8991H18.4878C24.8629 43.8991 29.7151 42.4113 33.0443 39.4357C36.3735 36.3893 38.0381 31.9614 38.0381 26.152C38.0381 14.2498 31.2026 8.29868 17.5315 8.29868Z" fill="#0079BD"/>
<path d="M88.3559 33.2721L101.956 52.1881H90.7997L78.3683 34.6536H66.8931V52.1881H58.0742V0.222171H77.412C85.2747 0.222171 90.906 1.56826 94.306 4.26042C97.7769 6.88175 99.5124 11.168 99.5124 17.1191C99.5124 25.6915 95.7936 31.0758 88.3559 33.2721ZM77.7308 26.7896C82.6184 26.7896 85.983 26.0457 87.8247 24.558C89.6664 23.0702 90.5872 20.5551 90.5872 17.0128C90.5872 13.6122 89.6664 11.3097 87.8247 10.1053C85.983 8.83003 82.6892 8.19241 77.9433 8.19241H66.8931V26.7896H77.7308Z" fill="#0079BD"/>
<path d="M191.368 0.222171C199.16 0.222171 204.862 1.74537 208.475 4.79177C212.158 7.76733 214 12.4078 214 18.7131C214 24.9476 212.158 29.5526 208.475 32.5282C204.792 35.4329 199.125 36.8853 191.475 36.8853H182.337V52.1881H173.518V0.222171H191.368ZM192.431 29.0213C197.106 29.0213 200.364 28.1357 202.206 26.3645C204.119 24.5934 205.075 21.7949 205.075 17.9692C205.075 14.4269 203.977 11.9119 201.781 10.4241C199.585 8.9363 196.043 8.19241 191.156 8.19241H182.337V29.0213H192.431Z" fill="#0079BD"/>
<path fill-rule="evenodd" clip-rule="evenodd" d="M136.313 0L139.941 4.68373C140.409 5.28864 140.937 5.96179 141.511 6.69454C144.611 10.6498 149.071 16.3416 152.958 22.4106C155.27 26.0218 157.454 29.8785 159.071 33.7092C160.671 37.4976 161.835 41.536 161.835 45.4382C161.835 55.5824 158.038 62.1376 152.329 65.8964C146.972 69.4235 140.641 70 136.346 70C131.677 70 125.471 68.811 120.301 65.0728C114.902 61.1691 111.061 54.7759 111.061 45.4382C111.061 37.9068 115.356 29.5127 119.76 22.5695C123.477 16.7091 127.76 11.16 130.874 7.12675C131.553 6.24679 132.177 5.43898 132.727 4.71584L136.313 0ZM136.373 14.8933C133.57 18.5492 130.333 22.879 127.439 27.4415C123.058 34.3488 120.155 40.7707 120.155 45.4382C120.155 51.9458 122.667 55.5597 125.629 57.7017C128.82 60.0092 132.984 60.9046 136.346 60.9046C140.083 60.9046 144.223 60.3442 147.329 58.2992C150.083 56.4861 152.741 53.0342 152.741 45.4382C152.741 43.2409 152.058 40.4782 150.694 37.2472C149.348 34.0586 147.452 30.6776 145.3 27.3161C142.39 22.7721 139.148 18.4684 136.373 14.8933Z" fill="#0079BD"/>
</svg>
